<svg xmlns="http://www.w3.org/2000/svg" viewBox="0 0 980 680" font-family="Segoe UI, Arial, sans-serif">
  <rect x="0" y="0" width="980" height="680" fill="#ffffff"/>
  <text x="490" y="30" text-anchor="middle" font-size="21" font-weight="700" fill="#111827">Minimum-Viable Bench — Wiring</text>
  <text x="490" y="52" text-anchor="middle" font-size="12.5" fill="#6b7280">LoRa mesh spine (B) · control + sensing node (A) · camera node (C) → gateway</text>

  <!-- legend -->
  <g font-size="11" fill="#374151">
    <rect x="30" y="64" width="14" height="12" rx="2" fill="#dbeafe" stroke="#1e40af"/><text x="49" y="74">LoRa radio</text>
    <rect x="130" y="64" width="14" height="12" rx="2" fill="#dcfce7" stroke="#166534"/><text x="149" y="74">MCU node</text>
    <rect x="228" y="64" width="14" height="12" rx="2" fill="#fef3c7" stroke="#92400e"/><text x="247" y="74">sensor / peripheral</text>
    <rect x="372" y="64" width="14" height="12" rx="2" fill="#e5e7eb" stroke="#374151"/><text x="391" y="74">host / gateway</text>
  </g>

  <!-- ================= (1) LoRa mesh spine ================= -->
  <text x="30" y="108" font-size="13" font-weight="700" fill="#1e40af">① LoRa mesh spine (Station B)</text>

  <!-- Host -->
  <rect x="30" y="120" width="120" height="66" rx="8" fill="#e5e7eb" stroke="#374151"/>
  <text x="90" y="148" text-anchor="middle" font-size="12.5" font-weight="600" fill="#111827">Host PC</text>
  <text x="90" y="166" text-anchor="middle" font-size="10.5" fill="#4b5563">console + gateway</text>

  <!-- USB host->base -->
  <line x1="150" y1="153" x2="205" y2="153" stroke="#374151" stroke-width="2"/>
  <polygon points="205,153 197,149 197,157" fill="#374151"/>
  <text x="177" y="145" text-anchor="middle" font-size="10" fill="#6b7280">USB</text>

  <!-- Base Heltec -->
  <rect x="205" y="120" width="160" height="66" rx="8" fill="#dbeafe" stroke="#1e40af"/>
  <line x1="285" y1="120" x2="285" y2="104" stroke="#1e40af" stroke-width="2"/><circle cx="285" cy="102" r="3" fill="#1e40af"/>
  <text x="285" y="146" text-anchor="middle" font-size="12.5" font-weight="700" fill="#1e3a8a">Heltec V3 — BASE</text>
  <text x="285" y="164" text-anchor="middle" font-size="10.5" fill="#1e40af">SX1262 + antenna</text>

  <!-- LoRa air -->
  <line x1="365" y1="153" x2="500" y2="153" stroke="#7c3aed" stroke-width="2.5" stroke-dasharray="7 5"/>
  <polygon points="500,153 491,148 491,158" fill="#7c3aed"/>
  <polygon points="365,153 374,148 374,158" fill="#7c3aed"/>
  <text x="432" y="140" text-anchor="middle" font-size="10.5" font-weight="600" fill="#7c3aed">LoRa 915 MHz</text>
  <text x="432" y="173" text-anchor="middle" font-size="9.5" fill="#7c3aed">SF7/BW125 · antennas ON</text>

  <!-- Field Heltec -->
  <rect x="500" y="120" width="160" height="66" rx="8" fill="#dbeafe" stroke="#1e40af"/>
  <line x1="580" y1="120" x2="580" y2="104" stroke="#1e40af" stroke-width="2"/><circle cx="580" cy="102" r="3" fill="#1e40af"/>
  <text x="580" y="146" text-anchor="middle" font-size="12.5" font-weight="700" fill="#1e3a8a">Heltec V3 — FIELD</text>
  <text x="580" y="164" text-anchor="middle" font-size="10.5" fill="#1e40af">SX1262 + antenna</text>

  <!-- UART to XIAO -->
  <line x1="660" y1="153" x2="770" y2="153" stroke="#374151" stroke-width="2"/>
  <text x="715" y="145" text-anchor="middle" font-size="10" fill="#6b7280">UART bridge</text>

  <!-- XIAO -->
  <rect x="770" y="120" width="180" height="66" rx="8" fill="#dcfce7" stroke="#166534"/>
  <text x="860" y="146" text-anchor="middle" font-size="12.5" font-weight="700" fill="#14532d">XIAO ESP32-S3 Sense</text>
  <text x="860" y="164" text-anchor="middle" font-size="10.5" fill="#166534">mesh sensor/camera node</text>

  <!-- UART bridge detail -->
  <rect x="500" y="205" width="450" height="86" rx="8" fill="#f9fafb" stroke="#9ca3af" stroke-dasharray="4 3"/>
  <text x="512" y="224" font-size="11" font-weight="700" fill="#374151">UART bridge (confirm common GND with a meter)</text>
  <text x="512" y="245" font-size="11" fill="#166534">XIAO GPIO43 (TX)  ──────►  Heltec GPIO2 (RX)</text>
  <text x="512" y="264" font-size="11" fill="#1e40af">Heltec GPIO4 (TX)  ──────►  XIAO GPIO44 (RX)</text>
  <text x="512" y="283" font-size="11" fill="#111827">GND  ───────────────  GND  (common)</text>

  <!-- ================= (2) Control & sensing node ================= -->
  <text x="30" y="330" font-size="13" font-weight="700" fill="#166534">② Control &amp; sensing node (Station A)</text>

  <rect x="30" y="345" width="180" height="150" rx="8" fill="#dcfce7" stroke="#166534"/>
  <text x="120" y="378" text-anchor="middle" font-size="12.5" font-weight="700" fill="#14532d">Waveshare ESP32-S3</text>
  <text x="120" y="396" text-anchor="middle" font-size="10.5" fill="#166534">Touch-LCD 2.1</text>
  <text x="120" y="414" text-anchor="middle" font-size="10.5" fill="#166534">reflex / safing node</text>
  <text x="120" y="470" text-anchor="middle" font-size="10" fill="#6b7280">USB → host</text>

  <!-- I2C bus -->
  <line x1="210" y1="378" x2="300" y2="378" stroke="#92400e" stroke-width="2"/>
  <text x="255" y="371" text-anchor="middle" font-size="9.5" fill="#92400e">I2C SDA=4 · SCL=5</text>
  <rect x="300" y="360" width="150" height="38" rx="6" fill="#fef3c7" stroke="#92400e"/>
  <text x="375" y="384" text-anchor="middle" font-size="11" fill="#78350f">BME280  @0x76</text>
  <line x1="210" y1="420" x2="300" y2="420" stroke="#92400e" stroke-width="2"/>
  <rect x="300" y="408" width="150" height="38" rx="6" fill="#fef3c7" stroke="#92400e"/>
  <text x="375" y="432" text-anchor="middle" font-size="11" fill="#78350f">MPU-6050  @0x68</text>

  <!-- DHT22 + LED -->
  <line x1="210" y1="460" x2="470" y2="460" stroke="#92400e" stroke-width="2"/>
  <rect x="470" y="360" width="150" height="38" rx="6" fill="#fef3c7" stroke="#92400e"/>
  <text x="545" y="384" text-anchor="middle" font-size="11" fill="#78350f">DHT22 (1-wire) ✓drv</text>
  <line x1="210" y1="378" x2="470" y2="379" stroke="#92400e" stroke-width="1" stroke-dasharray="3 3"/>
  <rect x="470" y="408" width="150" height="38" rx="6" fill="#fef3c7" stroke="#92400e"/>
  <text x="545" y="432" text-anchor="middle" font-size="11" fill="#78350f">LED+330Ω (GPIO14)</text>
  <text x="545" y="462" text-anchor="middle" font-size="9.5" fill="#92400e">DHT22 data GPIO · LED = safe output pin</text>

  <!-- ================= (3) Camera node ================= -->
  <text x="650" y="330" font-size="13" font-weight="700" fill="#166534">③ Camera node (Station C)</text>
  <rect x="650" y="345" width="150" height="150" rx="8" fill="#dcfce7" stroke="#166534"/>
  <text x="725" y="392" text-anchor="middle" font-size="12" font-weight="700" fill="#14532d">ESP32-S3-EYE</text>
  <text x="725" y="410" text-anchor="middle" font-size="10.5" fill="#166534">OV2640 + PSRAM</text>
  <text x="725" y="470" text-anchor="middle" font-size="10" fill="#6b7280">USB / battery</text>

  <line x1="800" y1="372" x2="828" y2="372" stroke="#92400e" stroke-width="2"/>
  <rect x="828" y="354" width="122" height="38" rx="6" fill="#fef3c7" stroke="#92400e"/>
  <text x="889" y="372" text-anchor="middle" font-size="10.5" fill="#78350f">PIR (HC-SR501)</text>
  <text x="889" y="385" text-anchor="middle" font-size="9" fill="#92400e">EXT0 wake GPIO</text>

  <line x1="800" y1="430" x2="828" y2="430" stroke="#92400e" stroke-width="2"/>
  <rect x="828" y="410" width="122" height="42" rx="6" fill="#fef3c7" stroke="#92400e"/>
  <text x="889" y="428" text-anchor="middle" font-size="10.5" fill="#78350f">microSD /sdcard</text>
  <text x="889" y="442" text-anchor="middle" font-size="9" fill="#92400e">D0=40 CMD=38 CLK=39</text>

  <!-- ================= gateway ================= -->
  <rect x="360" y="560" width="260" height="66" rx="8" fill="#e5e7eb" stroke="#374151"/>
  <text x="490" y="588" text-anchor="middle" font-size="13" font-weight="700" fill="#111827">Raspberry Pi 5 — Gateway</text>
  <text x="490" y="607" text-anchor="middle" font-size="10.5" fill="#4b5563">ClawCam gateway + OBC brain</text>

  <!-- dashed reports to gateway -->
  <line x1="120" y1="495" x2="410" y2="560" stroke="#6b7280" stroke-width="1.5" stroke-dasharray="5 4"/>
  <line x1="860" y1="186" x2="560" y2="560" stroke="#6b7280" stroke-width="1.5" stroke-dasharray="5 4"/>
  <line x1="725" y1="495" x2="560" y2="560" stroke="#6b7280" stroke-width="1.5" stroke-dasharray="5 4"/>
  <line x1="90" y1="186" x2="360" y2="575" stroke="#6b7280" stroke-width="1.5" stroke-dasharray="5 4"/>
  <text x="300" y="545" text-anchor="middle" font-size="10" fill="#6b7280">Wi-Fi / MQTT · mesh summaries via base console</text>

  <text x="30" y="650" font-size="9.5" fill="#9ca3af">Pins from firmware: sx1262.rs · obc-esp32-s3/BRINGUP.md · PHASE-B-LORA-MESH.md · esp32_s3_eye_v22.json.  Attach LoRa antennas before any TX.</text>
</svg>
